<?xml version="1.0" encoding="utf-8"?>
<!-- Generator: Adobe Illustrator 23.0.6, SVG Export Plug-In . SVG Version: 6.00 Build 0)  -->
<svg version="1.1" xmlns="http://www.w3.org/2000/svg" xmlns:xlink="http://www.w3.org/1999/xlink" x="0px" y="0px"
	 viewBox="0 0 841.89 1190.55" style="enable-background:new 0 0 841.89 1190.55;" xml:space="preserve">
<style type="text/css">
	.st0{fill:#FFDBC5;}
	.st1{fill:#FFC498;stroke:#DB8952;stroke-width:2.2166;stroke-miterlimit:10;}
	.st2{fill:#FFC498;stroke:#DB8952;stroke-width:2.6649;stroke-miterlimit:10;}
	.st3{fill:#FFC498;stroke:#DB8952;stroke-width:1.8623;stroke-miterlimit:10;}
	.st4{fill:#FFC498;stroke:#DB8952;stroke-width:1.7927;stroke-miterlimit:10;}
	.st5{fill:#FFC498;stroke:#DB8952;stroke-width:1.4826;stroke-miterlimit:10;}
	.st6{fill:none;stroke:#DB8952;stroke-width:1.4826;stroke-miterlimit:10;}
	.st7{display:none;}
	.st8{display:inline;fill:#FFC498;stroke:#DB8952;stroke-miterlimit:10;}
	.st9{fill:#FFC498;stroke:#DB8952;stroke-width:1.1654;stroke-miterlimit:10;}
	.st10{fill:none;stroke:#DB8952;stroke-width:0.8733;stroke-miterlimit:10;}
	.st11{fill:none;stroke:#DB8952;stroke-width:1.1681;stroke-miterlimit:10;}
</style>
<g id="Слой_9">
	<rect class="st0" width="841.89" height="1190.55"/>
</g>
<g id="Слой_3">
	<g>
		<g>
			<path class="st1" d="M128.17,77.78c-3.7,0.15-6.36,2.85-7.52,4.04c-4.96,5.06-12.49,22.2-19.83,45.88
				c-27.17,4.22-46.79,9.36-50.03,12.73c-2.47,2.56-2.96,5.33-2.96,5.33c0,0-0.4,2.22,0.43,4.77c1.37,4.18,16.68,17.62,38.94,34.01
				c-0.35,3.26-4.44,41.52-2.96,51.51c0.49,3.3,1.76,4.68,2.66,5.33c2.75,1.98,6.81,0.67,8.51,0.13
				c11.2-3.61,39.76-24.31,43.15-26.78c24.54,11.62,42.81,19.58,46.89,20.47c0.77,0.17,2.79,0.61,4.76-0.33c0,0,1.98-0.95,3.26-3.55
				c1.87-3.82-2.39-24.94-10.36-52.99c17.97-19.13,30.44-33.92,32.56-38.19c1.68-3.37,1.18-6.22,1.18-6.22c0,0-0.38-2.18-2.01-4.19
				c-2.8-3.45-24.58-6.19-54.53-7.06c-10.66-22.75-20.44-38.83-25.75-42.63C133.58,79.34,131.23,77.66,128.17,77.78z"/>
			<path class="st1" d="M144.93,117.34c-0.74-2.31-4.7-14.34-10.11-19.49c-2.31-2.2-4.08-2.39-4.69-2.41
				c-2.58-0.12-4.59,1.7-5.33,2.37c-6.98,6.32-7.57,26.6-17.47,34.93c-8.69,7.31-26.08,6.72-37.3,11.84
				c-1.12,0.51-3.37,1.62-4.14,3.85c-0.94,2.73,0.86,5.62,1.68,6.95c5.18,8.33,22.22,18.99,25.26,20.88"/>
			<path class="st1" d="M159.14,134.21c12.06-0.04,21.76,0.71,28.71,1.48c4.59,0.51,8.98,1.13,10.06,3.85
				c1.21,3.04-2.41,7.03-5.03,10.06c-11.14,12.9-16.71,19.36-18.35,25.46c-2.18,8.1,0.22,18.81,4.44,37.6
				c0.28,1.26,0.96,4.2-0.59,5.92c-2.28,2.53-8.02,0.92-15.1-1.48c-22.14-7.51-20.93-10.44-26.35-10.06
				c-9.34,0.65-11.59,9.27-30.79,17.47c-2.52,1.08-6.38,2.59-8.58,0.89c-1.99-1.54-1.53-4.84-1.09-12.4
				c0.31-5.33,0.45-10.2,0.5-14.54"/>
		</g>
		<g>
			<path class="st2" d="M673.12,485.66c-4.45,0.18-7.64,3.43-9.04,4.85c-5.96,6.08-15.02,26.69-23.84,55.16
				c-32.66,5.07-56.25,11.26-60.15,15.3c-2.97,3.08-3.56,6.41-3.56,6.41c0,0-0.48,2.67,0.52,5.73c1.64,5.03,20.06,21.18,46.81,40.89
				c-0.42,3.92-5.33,49.92-3.56,61.92c0.59,3.97,2.11,5.62,3.2,6.41c3.31,2.38,8.19,0.81,10.23,0.15
				c13.47-4.34,47.8-29.22,51.88-32.2c29.5,13.97,51.47,23.54,56.38,24.61c0.93,0.2,3.36,0.74,5.72-0.4c0,0,2.38-1.14,3.91-4.27
				c2.25-4.59-2.87-29.99-12.46-63.7c21.61-23,36.6-40.78,39.15-45.91c2.02-4.06,1.42-7.47,1.42-7.47s-0.45-2.62-2.42-5.04
				c-3.37-4.15-29.55-7.44-65.56-8.49c-12.82-27.35-24.58-46.69-30.96-51.25C679.62,487.53,676.79,485.51,673.12,485.66z"/>
			<path class="st2" d="M693.26,533.22c-0.89-2.77-5.65-17.24-12.15-23.43c-2.77-2.64-4.9-2.87-5.64-2.9
				c-3.11-0.14-5.51,2.04-6.41,2.85c-8.39,7.6-9.1,31.97-21,41.99c-10.44,8.79-31.35,8.08-44.84,14.24
				c-1.34,0.61-4.06,1.95-4.98,4.63c-1.14,3.28,1.03,6.76,2.02,8.35c6.23,10.01,26.71,22.84,30.36,25.1"/>
			<path class="st2" d="M710.34,553.5c14.5-0.05,26.16,0.86,34.52,1.78c5.52,0.61,10.8,1.36,12.1,4.63c1.45,3.66-2.9,8.45-6.05,12.1
				c-13.39,15.51-20.09,23.27-22.07,30.61c-2.62,9.74,0.27,22.61,5.34,45.2c0.34,1.51,1.15,5.05-0.71,7.12
				c-2.74,3.04-9.64,1.11-18.15-1.78c-26.61-9.03-25.17-12.55-31.67-12.1c-11.23,0.78-13.93,11.14-37.01,21
				c-3.03,1.3-7.67,3.12-10.32,1.07c-2.39-1.85-1.84-5.82-1.31-14.9c0.37-6.4,0.54-12.26,0.6-17.48"/>
			<path class="st3" d="M662.2,10.12c-3.11,0.12-5.34,2.39-6.32,3.39c-4.17,4.25-10.5,18.65-16.66,38.55
				c-22.82,3.54-39.31,7.87-42.03,10.69c-2.07,2.15-2.49,4.48-2.49,4.48c0,0-0.33,1.87,0.36,4.01c1.15,3.52,14.02,14.8,32.71,28.57
				c-0.3,2.74-3.73,34.88-2.49,43.27c0.41,2.78,1.48,3.93,2.24,4.48c2.31,1.66,5.72,0.56,7.15,0.11c9.41-3.04,33.4-20.42,36.25-22.5
				c20.62,9.76,35.97,16.45,39.4,17.2c0.65,0.14,2.35,0.52,4-0.28c0,0,1.67-0.8,2.74-2.98c1.57-3.21-2.01-20.96-8.7-44.52
				c15.1-16.07,25.58-28.5,27.36-32.08c1.41-2.84,0.99-5.22,0.99-5.22c0,0-0.32-1.83-1.69-3.52c-2.35-2.9-20.65-5.2-45.81-5.93
				c-8.96-19.12-17.17-32.63-21.64-35.81C666.74,11.43,664.77,10.02,662.2,10.12z"/>
			<path class="st3" d="M676.27,43.36c-0.62-1.94-3.95-12.04-8.49-16.38c-1.94-1.85-3.43-2.01-3.94-2.03
				c-2.17-0.1-3.85,1.42-4.48,1.99c-5.86,5.31-6.36,22.34-14.67,29.35c-7.3,6.14-21.91,5.65-31.34,9.95
				c-0.94,0.43-2.83,1.36-3.48,3.23c-0.79,2.29,0.72,4.72,1.41,5.84c4.35,6.99,18.66,15.96,21.22,17.54"/>
			<path class="st3" d="M688.21,57.53c10.14-0.04,18.28,0.6,24.12,1.24c3.85,0.43,7.55,0.95,8.46,3.23
				c1.02,2.56-2.03,5.91-4.23,8.46c-9.36,10.84-14.04,16.26-15.42,21.39c-1.83,6.81,0.19,15.8,3.73,31.58
				c0.24,1.05,0.81,3.53-0.5,4.97c-1.92,2.13-6.74,0.78-12.68-1.24c-18.6-6.31-17.59-8.77-22.13-8.46
				c-7.85,0.54-9.73,7.79-25.86,14.67c-2.12,0.91-5.36,2.18-7.21,0.75c-1.67-1.29-1.28-4.07-0.92-10.41
				c0.26-4.48,0.38-8.57,0.42-12.22"/>
			<path class="st4" d="M92.73,981.05c-3,0.12-5.14,2.3-6.08,3.27c-4.01,4.09-10.11,17.96-16.04,37.11
				c-21.97,3.41-37.84,7.57-40.46,10.29c-1.99,2.07-2.39,4.31-2.39,4.31c0,0-0.32,1.8,0.35,3.86c1.1,3.38,13.49,14.25,31.49,27.51
				c-0.29,2.64-3.59,33.58-2.39,41.66c0.39,2.67,1.42,3.78,2.15,4.31c2.23,1.6,5.51,0.54,6.88,0.1c9.06-2.92,32.15-19.66,34.9-21.66
				c19.85,9.4,34.62,15.83,37.93,16.56c0.62,0.14,2.26,0.5,3.85-0.27c0,0,1.6-0.77,2.63-2.87c1.51-3.09-1.93-20.17-8.38-42.85
				c14.53-15.47,24.62-27.43,26.34-30.88c1.36-2.73,0.96-5.03,0.96-5.03c0,0-0.3-1.76-1.63-3.39c-2.27-2.79-19.88-5-44.1-5.71
				c-8.62-18.4-16.53-31.41-20.83-34.48C97.1,982.31,95.2,980.96,92.73,981.05z"/>
			<path class="st4" d="M106.28,1013.05c-0.6-1.86-3.8-11.59-8.17-15.76c-1.87-1.78-3.3-1.93-3.8-1.95
				c-2.09-0.09-3.71,1.37-4.31,1.92c-5.65,5.11-6.12,21.51-14.13,28.25c-7.03,5.92-21.09,5.44-30.17,9.58
				c-0.9,0.41-2.73,1.31-3.35,3.11c-0.76,2.2,0.69,4.55,1.36,5.62c4.19,6.73,17.97,15.36,20.43,16.89"/>
			<path class="st4" d="M117.77,1026.7c9.76-0.03,17.6,0.58,23.22,1.2c3.71,0.41,7.27,0.91,8.14,3.11c0.98,2.46-1.95,5.69-4.07,8.14
				c-9.01,10.44-13.51,15.66-14.84,20.59c-1.77,6.55,0.18,15.21,3.59,30.41c0.23,1.02,0.78,3.4-0.48,4.79
				c-1.84,2.05-6.49,0.75-12.21-1.2c-17.9-6.08-16.93-8.44-21.31-8.14c-7.56,0.52-9.37,7.5-24.9,14.13
				c-2.04,0.87-5.16,2.1-6.94,0.72c-1.61-1.24-1.24-3.91-0.88-10.02c0.25-4.31,0.37-8.25,0.41-11.76"/>
			<path class="st4" d="M158.96,545.39c-3,0.12-5.14,2.3-6.08,3.27c-4.01,4.09-10.11,17.96-16.04,37.11
				c-21.97,3.41-37.84,7.57-40.46,10.29c-1.99,2.07-2.39,4.31-2.39,4.31c0,0-0.32,1.8,0.35,3.86c1.1,3.38,13.49,14.25,31.49,27.51
				c-0.29,2.64-3.59,33.58-2.39,41.66c0.39,2.67,1.42,3.78,2.15,4.31c2.23,1.6,5.51,0.54,6.88,0.1c9.06-2.92,32.15-19.66,34.9-21.66
				c19.85,9.4,34.62,15.83,37.93,16.56c0.62,0.14,2.26,0.5,3.85-0.27c0,0,1.6-0.77,2.63-2.87c1.51-3.09-1.93-20.17-8.38-42.85
				c14.53-15.47,24.62-27.43,26.34-30.88c1.36-2.73,0.96-5.03,0.96-5.03c0,0-0.3-1.76-1.63-3.39c-2.27-2.79-19.88-5-44.1-5.71
				c-8.62-18.4-16.53-31.41-20.83-34.48C163.34,546.65,161.43,545.29,158.96,545.39z"/>
			<path class="st4" d="M172.51,577.38c-0.6-1.86-3.8-11.59-8.17-15.76c-1.87-1.78-3.3-1.93-3.8-1.95
				c-2.09-0.09-3.71,1.37-4.31,1.92c-5.65,5.11-6.12,21.51-14.13,28.25c-7.03,5.92-21.09,5.44-30.17,9.58
				c-0.9,0.41-2.73,1.31-3.35,3.11c-0.76,2.2,0.69,4.55,1.36,5.62c4.19,6.73,17.97,15.36,20.43,16.89"/>
			<path class="st4" d="M184,591.03c9.76-0.03,17.6,0.58,23.22,1.2c3.71,0.41,7.27,0.91,8.14,3.11c0.98,2.46-1.95,5.69-4.07,8.14
				c-9.01,10.44-13.51,15.66-14.84,20.59c-1.77,6.55,0.18,15.21,3.59,30.41c0.23,1.02,0.78,3.4-0.48,4.79
				c-1.84,2.05-6.49,0.75-12.21-1.2c-17.9-6.08-16.93-8.44-21.31-8.14c-7.56,0.52-9.37,7.5-24.9,14.13
				c-2.04,0.87-5.16,2.1-6.94,0.72c-1.61-1.24-1.24-3.91-0.88-10.02c0.25-4.31,0.37-8.25,0.41-11.76"/>
			<path class="st2" d="M606.98,948.66c-4.45,0.18-7.64,3.43-9.04,4.85c-5.96,6.08-15.02,26.69-23.84,55.16
				c-32.66,5.07-56.25,11.26-60.15,15.3c-2.97,3.08-3.56,6.41-3.56,6.41c0,0-0.48,2.67,0.52,5.73c1.64,5.03,20.06,21.18,46.81,40.89
				c-0.42,3.92-5.33,49.92-3.56,61.92c0.59,3.97,2.11,5.62,3.2,6.41c3.31,2.38,8.19,0.81,10.23,0.15
				c13.47-4.34,47.8-29.22,51.88-32.2c29.5,13.97,51.47,23.54,56.38,24.61c0.93,0.2,3.36,0.74,5.72-0.4c0,0,2.38-1.14,3.91-4.27
				c2.25-4.59-2.87-29.99-12.46-63.7c21.61-23,36.6-40.78,39.15-45.91c2.02-4.06,1.42-7.47,1.42-7.47s-0.45-2.62-2.42-5.04
				c-3.37-4.15-29.55-7.44-65.56-8.49c-12.82-27.35-24.58-46.69-30.96-51.25C613.48,950.54,610.65,948.52,606.98,948.66z"/>
			<path class="st2" d="M627.12,996.22c-0.89-2.77-5.65-17.24-12.15-23.43c-2.77-2.64-4.9-2.87-5.64-2.9
				c-3.11-0.14-5.51,2.04-6.41,2.85c-8.39,7.6-9.1,31.97-21,41.99c-10.44,8.79-31.35,8.08-44.84,14.24
				c-1.34,0.61-4.06,1.95-4.98,4.63c-1.14,3.28,1.03,6.76,2.02,8.35c6.23,10.01,26.71,22.84,30.36,25.1"/>
			<path class="st2" d="M644.2,1016.51c14.5-0.05,26.16,0.86,34.52,1.78c5.52,0.61,10.8,1.36,12.1,4.63
				c1.45,3.66-2.9,8.45-6.05,12.1c-13.39,15.51-20.09,23.27-22.07,30.61c-2.62,9.74,0.27,22.61,5.34,45.2
				c0.34,1.51,1.15,5.05-0.71,7.12c-2.74,3.04-9.64,1.11-18.15-1.78c-26.61-9.03-25.17-12.55-31.67-12.1
				c-11.23,0.78-13.93,11.14-37.01,21c-3.03,1.3-7.67,3.12-10.32,1.07c-2.39-1.85-1.84-5.82-1.31-14.9
				c0.37-6.4,0.54-12.26,0.6-17.48"/>
		</g>
		<path class="st5" d="M356.2,485.15c-3.6,3.89-8.49,5.37-12.43,5.96c-63.22,3.27-110.05,2.79-121.35-0.87
			c-7.32-2.37-11.35-7.09-11.36-7.09c-4.57-5.35-5.23-11.77-5.47-14.41c-1.08-12.05-6.35-82.55-12.92-179.43
			c0.51-2.7,1.64-6.49,4.47-9.94c0,0,3.65-4.45,10.15-6.8c8.97-3.25,60.41-10.66,131.07-18.55c1.71-0.25,8.08-0.99,14.35,2.98
			c7.72,4.9,9.22,13.09,9.44,14.41c0.12,107.81-0.38,186.38-0.88,199.33C361.18,473.63,360.8,480.2,356.2,485.15z"/>
		<path class="st5" d="M554.02,485.15c-5.94,5.85-14.51,6.08-18.43,6.09c-57.07,0.25-100.39-0.02-120.74-0.13
			c-3.2-0.02-10.65,0.01-15.91-4.97c-6.4-6.06-5.92-16.09-5.81-19.54c0.75-22.2,0.22-181.42-0.5-200.62
			c-0.11-3.03-0.57-11.47,4.79-17.72c5.29-6.18,13.56-7.06,16.58-7.43c25.64-3.12,109.92-22.02,129.74-17.72
			c1.23,0.27,4.32,0.94,7.29,3.29c4.25,3.36,5.84,8.24,6.43,10.15c1.12,3.61,1.14,6.55,1.14,7.14
			c0.89,73.45-0.25,146.92,1.74,220.35C560.45,467.92,560.83,478.44,554.02,485.15z"/>
		<circle class="st5" cx="377.17" cy="340.18" r="12.02"/>
		<circle class="st5" cx="377.39" cy="396.87" r="12.02"/>
		<g>
			<path class="st0" d="M318.84,369.8c0.25,26.2,0.52,55.23-19.31,74.19c-3.64,3.49-14.48,13.85-28.77,12.87
				c-12.27-0.84-20.57-9.59-24.98-14.38c-19.54-21.21-19.4-50.46-19.31-70.79c0.1-21.71,0.28-58.57,23.47-75.33
				c2.99-2.16,11.12-7.87,22.34-7.98c14.06-0.14,24.08,8.61,27.25,11.39C318.33,316.19,318.59,343.52,318.84,369.8z"/>
			<path class="st6" d="M318.84,369.8c0.25,26.2,0.52,55.23-19.31,74.19c-3.64,3.49-14.48,13.85-28.77,12.87
				c-12.27-0.84-20.57-9.59-24.98-14.38c-19.54-21.21-19.4-50.46-19.31-70.79c0.1-21.71,0.28-58.57,23.47-75.33
				c2.99-2.16,11.12-7.87,22.34-7.98c14.06-0.14,24.08,8.61,27.25,11.39C318.33,316.19,318.59,343.52,318.84,369.8z"/>
		</g>
		<path class="st5" d="M280.77,316.96c-4.8-2.16-10.7-1.94-15.3,0.23c-15.18,7.14-14.74,34.8-14.38,56.4
			c0.33,20.07,0.77,47.24,15.14,52.99c6.22,2.49,12.36-0.1,13.16-0.45c15.94-7,15.91-36.68,15.88-56.65
			C295.25,349.5,295.22,323.45,280.77,316.96z"/>
		<g>
			<path class="st0" d="M457.05,315.01c-2.55,4.75-9.01,8.13-15.05,7.27c-4.79-0.68-8.92-3.97-11.01-7.62
				c-6.8-11.83,3.62-34.74,20.35-45.18c13.38-8.35,27.6-6.73,32.15-6.14c5.1,0.65,16.72,2.91,26.13,11.01
				c19.36,16.67,19.95,49.77,11.25,71.83c-3.64,9.22-15.09,21.93-37.85,46.95c-9.86,10.85-18.22,19.64-23.97,25.61
				c-0.37,1.32-0.73,2.63-1.1,3.95c19.14,0.16,38.28,0.31,57.42,0.47c5.99,3.05,9.83,9.14,9.96,15.82
				c0.13,6.92-3.75,13.36-9.96,16.52c-26.17-0.08-52.34-0.16-78.51-0.23c-0.98-0.12-4.83-0.73-7.73-4.1
				c-2.15-2.49-2.66-5.19-2.81-6.33c0.06-10.34,0.11-20.68,0.17-31.01c14.42-19.24,27-34.11,35.84-44.16
				c20.29-23.05,31.3-32.53,31.95-49.15c0.09-2.39,0.61-20.53-10.31-25.54c-6.16-2.83-14.53-1.23-19.1,3.16
				c-3.53,3.39-5.4,9.03-6.21,11.48C457.5,313.04,457.97,313.3,457.05,315.01z"/>
			<path class="st6" d="M457.05,315.01c-2.55,4.75-9.01,8.13-15.05,7.27c-4.79-0.68-8.92-3.97-11.01-7.62
				c-6.8-11.83,3.62-34.74,20.35-45.18c13.38-8.35,27.6-6.73,32.15-6.14c5.1,0.65,16.72,2.91,26.13,11.01
				c19.36,16.67,19.95,49.77,11.25,71.83c-3.64,9.22-15.09,21.93-37.85,46.95c-9.86,10.85-18.22,19.64-23.97,25.61
				c-0.37,1.32-0.73,2.63-1.1,3.95c19.14,0.16,38.28,0.31,57.42,0.47c5.99,3.05,9.83,9.14,9.96,15.82
				c0.13,6.92-3.75,13.36-9.96,16.52c-26.17-0.08-52.34-0.16-78.51-0.23c-0.98-0.12-4.83-0.73-7.73-4.1
				c-2.15-2.49-2.66-5.19-2.81-6.33c0.06-10.34,0.11-20.68,0.17-31.01c14.42-19.24,27-34.11,35.84-44.16
				c20.29-23.05,31.3-32.53,31.95-49.15c0.09-2.39,0.61-20.53-10.31-25.54c-6.16-2.83-14.53-1.23-19.1,3.16
				c-3.53,3.39-5.4,9.03-6.21,11.48C457.5,313.04,457.97,313.3,457.05,315.01z"/>
		</g>
		<g class="st7">
			<path class="st8" d="M260.52,889.63c4.83-0.03,8.3,2.74,8.55,5.6c0.16,1.87-1.07,3.43-1.69,4.1c-1.78,1.88-4.74,4.56-9.03,6.7
				c-4.75,2.37-9.09,3.06-11.78,3.28c-0.55-0.21-2.87-1.15-4.03-3.65c-1.13-2.43-0.72-5.39,1.04-7.66
				c-15.85-28.56-31.7-57.13-47.54-85.69c-7.03-4.66-14.07-9.32-21.1-13.98c-32.4-59.38-64.79-118.76-97.19-178.14
				c-0.49-1.72-0.97-4.39-0.09-7.22c1.06-3.41,3.45-4.98,18.1-12.52c8.57-4.41,11.81-5.97,15.97-4.96c2.43,0.59,4.25,1.82,5.42,2.8
				c32.48,60.01,64.97,120.01,97.45,180.02c-0.8,8.19-1.59,16.38-2.39,24.58C228.31,831.8,244.42,860.72,260.52,889.63z"/>
			
				<ellipse transform="matrix(0.126 -0.992 0.992 0.126 -404.4128 692.6871)" class="st8" cx="190.92" cy="575.87" rx="18.12" ry="17.79"/>
		</g>
		<path class="st9" d="M261.45,912.48c-2.83,3.06-6.67,4.22-9.77,4.69c-49.69,2.57-86.51,2.19-95.39-0.68
			c-5.75-1.86-8.93-5.57-8.93-5.57c-3.59-4.21-4.11-9.25-4.3-11.33c-0.85-9.47-4.99-64.89-10.16-141.05c0.4-2.13,1.29-5.1,3.52-7.81
			c0,0,2.87-3.5,7.98-5.35c7.05-2.55,47.49-8.38,103.04-14.58c1.35-0.2,6.35-0.78,11.28,2.34c6.07,3.85,7.25,10.29,7.42,11.33
			c0.1,84.75-0.3,146.51-0.69,156.69C265.36,903.42,265.06,908.59,261.45,912.48z"/>
		<path class="st9" d="M416.96,912.48c-4.67,4.6-11.41,4.78-14.49,4.79c-44.86,0.2-78.91-0.02-94.91-0.1
			c-2.51-0.01-8.37,0.01-12.5-3.91c-5.03-4.76-4.65-12.65-4.56-15.36c0.59-17.45,0.17-142.62-0.39-157.7
			c-0.09-2.38-0.45-9.01,3.76-13.93c4.16-4.86,10.66-5.55,13.03-5.84c20.15-2.45,86.41-17.31,101.99-13.93
			c0.97,0.21,3.39,0.74,5.73,2.58c3.34,2.64,4.59,6.48,5.05,7.97c0.88,2.84,0.89,5.15,0.9,5.62c0.7,57.74-0.2,115.5,1.37,173.21
			C422.01,898.93,422.31,907.21,416.96,912.48z"/>
		<circle class="st9" cx="277.93" cy="798.52" r="9.45"/>
		<circle class="st9" cx="278.1" cy="843.09" r="9.45"/>
		<g>
			<path class="st0" d="M188.21,798.75c-1.5,2.79-5.3,4.79-8.87,4.28c-2.82-0.4-5.25-2.34-6.49-4.49c-4-6.97,2.13-20.46,11.99-26.61
				c7.88-4.92,16.26-3.96,18.93-3.62c3,0.39,9.85,1.72,15.39,6.49c11.41,9.82,11.75,29.31,6.63,42.31
				c-2.14,5.43-8.89,12.92-22.3,27.66c-5.81,6.39-10.73,11.57-14.12,15.09c-0.22,0.78-0.43,1.55-0.65,2.33
				c11.27,0.09,22.55,0.18,33.82,0.28c3.53,1.8,5.79,5.39,5.87,9.32c0.08,4.08-2.21,7.87-5.87,9.73
				c-15.41-0.05-30.83-0.09-46.24-0.14c-0.58-0.07-2.84-0.43-4.56-2.42c-1.27-1.47-1.57-3.06-1.66-3.73
				c0.03-6.09,0.07-12.18,0.1-18.27c8.49-11.33,15.9-20.09,21.11-26.01c11.95-13.58,18.44-19.16,18.82-28.95
				c0.05-1.41,0.36-12.09-6.07-15.05c-3.63-1.67-8.56-0.73-11.25,1.86c-2.08,2-3.18,5.32-3.66,6.76
				C188.48,797.59,188.76,797.74,188.21,798.75z"/>
			<path class="st10" d="M188.21,798.75c-1.5,2.79-5.3,4.79-8.87,4.28c-2.82-0.4-5.25-2.34-6.49-4.49
				c-4-6.97,2.13-20.46,11.99-26.61c7.88-4.92,16.26-3.96,18.93-3.62c3,0.39,9.85,1.72,15.39,6.49
				c11.41,9.82,11.75,29.31,6.63,42.31c-2.14,5.43-8.89,12.92-22.3,27.66c-5.81,6.39-10.73,11.57-14.12,15.09
				c-0.22,0.78-0.43,1.55-0.65,2.33c11.27,0.09,22.55,0.18,33.82,0.28c3.53,1.8,5.79,5.39,5.87,9.32c0.08,4.08-2.21,7.87-5.87,9.73
				c-15.41-0.05-30.83-0.09-46.24-0.14c-0.58-0.07-2.84-0.43-4.56-2.42c-1.27-1.47-1.57-3.06-1.66-3.73
				c0.03-6.09,0.07-12.18,0.1-18.27c8.49-11.33,15.9-20.09,21.11-26.01c11.95-13.58,18.44-19.16,18.82-28.95
				c0.05-1.41,0.36-12.09-6.07-15.05c-3.63-1.67-8.56-0.73-11.25,1.86c-2.08,2-3.18,5.32-3.66,6.76
				C188.48,797.59,188.76,797.74,188.21,798.75z"/>
		</g>
		<g>
			<path class="st0" d="M340.86,773.18c-2.01,3.74-7.1,6.4-11.86,5.73c-3.77-0.54-7.03-3.13-8.68-6
				c-5.35-9.32,2.85-27.37,16.03-35.59c10.54-6.58,21.74-5.3,25.33-4.84c4.02,0.52,13.17,2.29,20.59,8.68
				c15.26,13.13,15.72,39.21,8.86,56.59c-2.87,7.27-11.89,17.28-29.82,36.99c-7.77,8.54-14.35,15.47-18.89,20.18
				c-0.29,1.04-0.58,2.07-0.87,3.11c15.08,0.12,30.16,0.25,45.24,0.37c4.72,2.4,7.75,7.2,7.85,12.46
				c0.11,5.45-2.95,10.52-7.85,13.02c-20.62-0.06-41.23-0.12-61.85-0.18c-0.78-0.1-3.8-0.57-6.09-3.23
				c-1.69-1.96-2.1-4.09-2.22-4.99c0.04-8.14,0.09-16.29,0.13-24.43c11.36-15.16,21.27-26.87,28.24-34.79
				c15.98-18.16,24.66-25.63,25.17-38.72c0.07-1.88,0.48-16.17-8.12-20.13c-4.85-2.23-11.45-0.97-15.05,2.49
				c-2.78,2.67-4.25,7.12-4.89,9.05C341.22,771.63,341.59,771.83,340.86,773.18z"/>
			<path class="st11" d="M340.86,773.18c-2.01,3.74-7.1,6.4-11.86,5.73c-3.77-0.54-7.03-3.13-8.68-6
				c-5.35-9.32,2.85-27.37,16.03-35.59c10.54-6.58,21.74-5.3,25.33-4.84c4.02,0.52,13.17,2.29,20.59,8.68
				c15.26,13.13,15.72,39.21,8.86,56.59c-2.87,7.27-11.89,17.28-29.82,36.99c-7.77,8.54-14.35,15.47-18.89,20.18
				c-0.29,1.04-0.58,2.07-0.87,3.11c15.08,0.12,30.16,0.25,45.24,0.37c4.72,2.4,7.75,7.2,7.85,12.46
				c0.11,5.45-2.95,10.52-7.85,13.02c-20.62-0.06-41.23-0.12-61.85-0.18c-0.78-0.1-3.8-0.57-6.09-3.23
				c-1.69-1.96-2.1-4.09-2.22-4.99c0.04-8.14,0.09-16.29,0.13-24.43c11.36-15.16,21.27-26.87,28.24-34.79
				c15.98-18.16,24.66-25.63,25.17-38.72c0.07-1.88,0.48-16.17-8.12-20.13c-4.85-2.23-11.45-0.97-15.05,2.49
				c-2.78,2.67-4.25,7.12-4.89,9.05C341.22,771.63,341.59,771.83,340.86,773.18z"/>
		</g>
	</g>
</g>
</svg>
