<?xml version="1.0" encoding="utf-8"?>
<!-- Generator: Adobe Illustrator 23.0.6, SVG Export Plug-In . SVG Version: 6.00 Build 0)  -->
<svg version="1.1" xmlns="http://www.w3.org/2000/svg" xmlns:xlink="http://www.w3.org/1999/xlink" x="0px" y="0px"
	 viewBox="0 0 841.89 1190.55" style="enable-background:new 0 0 841.89 1190.55;" xml:space="preserve">
<style type="text/css">
	.st0{fill:#FFC29E;}
	.st1{opacity:0.89;}
	.st2{fill:#FE9542;}
</style>
<g id="Слой_14">
	<rect class="st0" width="841.89" height="1190.55"/>
</g>
<g id="Слой_11" class="st1">
	<g>
		<g>
			<path class="st2" d="M521.56,571.94c4.07,6.75,3.09,13.93-0.72,16.68c-2.49,1.79-5.71,1.36-7.17,1.05
				c-4.12-0.93-10.35-2.84-16.95-7.09c-7.3-4.69-11.88-10.2-14.44-13.79c-0.17-0.95-0.78-5,1.76-8.71
				c2.47-3.62,6.97-5.51,11.62-4.94c26.86-46.11,53.72-92.21,80.58-138.32c0.66-13.76,1.33-27.53,1.99-41.29
				C634.52,280.45,690.81,185.38,747.1,90.3c2-2.13,5.35-5.03,10.05-6.16c5.67-1.36,9.86,0.68,32.69,14.94
				c13.35,8.34,18.24,11.59,20.31,18.28c1.21,3.9,0.99,7.48,0.6,9.95c-57.1,95.73-114.2,191.45-171.3,287.18
				c-12.17,5.72-24.33,11.45-36.5,17.17C575.83,478.41,548.69,525.18,521.56,571.94z"/>
		</g>
		<g>
			
				<ellipse transform="matrix(0.126 -0.992 0.992 0.126 460.5251 617.0402)" class="st2" cx="580.46" cy="47.15" rx="29.6" ry="29.06"/>
		</g>
	</g>
</g>
<g id="Слой_12" class="st1">
	<g>
		<path class="st2" d="M360.96,1137.42c7.89-0.05,13.55,4.47,13.96,9.15c0.27,3.05-1.75,5.6-2.76,6.7
			c-2.9,3.07-7.74,7.44-14.76,10.94c-7.76,3.87-14.84,5-19.23,5.35c-0.9-0.34-4.69-1.89-6.58-5.96c-1.84-3.97-1.17-8.81,1.7-12.51
			c-25.89-46.66-51.77-93.32-77.66-139.98c-11.49-7.61-22.98-15.22-34.46-22.83c-52.92-97-105.84-193.99-158.76-290.99
			c-0.81-2.81-1.59-7.17-0.15-11.79c1.73-5.57,5.63-8.13,29.56-20.46c13.99-7.21,19.29-9.75,26.09-8.11
			c3.97,0.96,6.94,2.97,8.86,4.57c53.06,98.02,106.13,196.04,159.19,294.06c-1.3,13.38-2.6,26.76-3.91,40.15
			C308.34,1042.95,334.65,1090.18,360.96,1137.42z"/>
		
			<ellipse transform="matrix(0.126 -0.992 0.992 0.126 -403.7842 791.4129)" class="st2" cx="247.27" cy="624.87" rx="29.6" ry="29.06"/>
	</g>
</g>
</svg>
